<?xml version="1.0" encoding="UTF-8"?>
<svg width="56px" height="56px" viewBox="0 0 56 56" version="1.1" xmlns="http://www.w3.org/2000/svg" xmlns:xlink="http://www.w3.org/1999/xlink">
    <!-- Generator: Sketch 54.1 (76490) - https://sketchapp.com -->
    <title>download</title>
    <desc>Created with Sketch.</desc>
    <g id="Page-1" stroke="none" stroke-width="1" fill="none" fill-rule="evenodd">
        <g id="download">
            <path d="M54.76,27.76 C54.76,42.6716882 42.6716882,54.76 27.76,54.76 C12.8483118,54.76 0.76,42.6716882 0.76,27.76 C0.76,12.8483118 12.8483118,0.76 27.76,0.76 C42.6716882,0.76 54.76,12.8483118 54.76,27.76" id="Path" fill="#FBEEBB" fill-rule="nonzero"></path>
            <circle id="Oval" stroke="#014034" stroke-width="1.53" cx="27.76" cy="27.76" r="27"></circle>
            <path d="M40.27,12.91 C40.27,16.3396883 37.4896883,19.12 34.06,19.12 C30.6303117,19.12 27.85,16.3396883 27.85,12.91 C27.85,9.4803117 30.6303117,6.7 34.06,6.7 C37.4896883,6.7 40.27,9.4803117 40.27,12.91" id="Path" fill="#014034" fill-rule="nonzero"></path>
            <path d="M27.36,25.86 C27.36,28.2458701 25.4258701,30.18 23.04,30.18 C20.6541299,30.18 18.72,28.2458701 18.72,25.86 C18.72,23.4741299 20.6541299,21.54 23.04,21.54 C25.4235889,21.5454985 27.3545015,23.4764111 27.36,25.86" id="Path" fill="#014034" fill-rule="nonzero"></path>
            <polygon id="Path" fill="#014034" fill-rule="nonzero" points="8.51 17.2 8.51 43.24 27.41 43.24"></polygon>
            <polygon id="Path" fill="#014034" fill-rule="nonzero" points="47.66 17.2 47.66 43.24 28.75 43.24"></polygon>
            <g id="Group" transform="translate(14.000000, 7.000000)" fill="#014034" fill-rule="nonzero">
                <rect id="Rectangle" x="1.17" y="0.11" width="14.4" height="1.71"></rect>
                <rect id="Rectangle" x="0.26" y="3.62" width="14.4" height="1.8"></rect>
                <rect id="Rectangle" x="0.26" y="7.38" width="14.4" height="1.8"></rect>
                <rect id="Rectangle" x="2.07" y="10.94" width="14.4" height="1.8"></rect>
                <rect id="Rectangle" x="10.71" y="13.64" width="11.7" height="1.71"></rect>
                <rect id="Rectangle" x="13.4" y="16.34" width="9.73" height="1.62"></rect>
                <rect id="Rectangle" x="13.4" y="19.1" width="9.73" height="1.58"></rect>
                <rect id="Rectangle" x="12.51" y="21.9" width="9.73" height="1.53"></rect>
            </g>
        </g>
    </g>
</svg>